PathFileType	4	(x/y/z)	S01_P20_T17
DataRate	CameraRate	NumFrames	NumMarkers	Units	OrigDataRate	OrigDataStartFrame	OrigNumFrames
240	240	5	51	mm	240	314	418
Frame#	Time	Sternum			R.Acromium			L.Acromium			Top.Head			R.ASIS			L.ASIS			R.PSIS			L.PSIS			R.Great.Tro			L.Great.Tro			R.Iliac.Crest			L.Iliac.Crest			V.Sacral			R.Thigh.Upper.Post			R.Thigh.Lower.Ant			R.Thigh.Lower.Post			R.Thigh.Upper.Ant			R.Knee.Lat			R.Knee.Med			R.Shank.Upper.Post			R.Shank.Lower.Ant			R.Shank.Lower.Post			R.Shank.Upper.Ant			R.Ankle.Lat			R.Ankle.Med			R.Heel.Upper			R.Heel.Med			R.Heel.Lat			R.Toe.Lat			R.Toe.Med			R.Toe.Tip			L.Thigh.Upper.Post			L.Thigh.Lower.Ant			L.Thigh.Lower.Post			L.Thigh.Upper.Ant			L.Knee.Lat			L.Knee.Med			L.Shank.Upper.Post			L.Shank.Lower.Ant			L.Shank.Lower.Post			L.Shank.Upper.Ant			L.Ankle.Lat			L.Ankle.Med			L.Heel.Upper			L.Heel.Med			L.Heel.Lat			L.Toe.Lat			L.Toe.Med			L.Toe.Tip			Cervical.Spine			Back			
		X1	Y1	Z1	X2	Y2	Z2	X3	Y3	Z3	X4	Y4	Z4	X5	Y5	Z5	X6	Y6	Z6	X7	Y7	Z7	X8	Y8	Z8	X9	Y9	Z9	X10	Y10	Z10	X11	Y11	Z11	X12	Y12	Z12	X13	Y13	Z13	X14	Y14	Z14	X15	Y15	Z15	X16	Y16	Z16	X17	Y17	Z17	X18	Y18	Z18	X19	Y19	Z19	X20	Y20	Z20	X21	Y21	Z21	X22	Y22	Z22	X23	Y23	Z23	X24	Y24	Z24	X25	Y25	Z25	X26	Y26	Z26	X27	Y27	Z27	X28	Y28	Z28	X29	Y29	Z29	X30	Y30	Z30	X31	Y31	Z31	X32	Y32	Z32	X33	Y33	Z33	X34	Y34	Z34	X35	Y35	Z35	X36	Y36	Z36	X37	Y37	Z37	X38	Y38	Z38	X39	Y39	Z39	X40	Y40	Z40	X41	Y41	Z41	X42	Y42	Z42	X43	Y43	Z43	X44	Y44	Z44	X45	Y45	Z45	X46	Y46	Z46	X47	Y47	Z47	X48	Y48	Z48	X49	Y49	Z49	X50	Y50	Z50	X51	Y51	Z51	

314	1.3042	464.42	1286.3	269.34	355.33	1545.1	435.04	349.96	1554.5	104.13	344.56	1864.6	265.47	404.82	1047.5	427.19	415.52	1029.2	161.34	174.55	1090.9	329.01	174.47	1088.1	225.01	331.01	1005.1	511.7	304.85	982.26	82.631	316.04	1150.6	486.6	311.6	1113	81.293	159.38	1053.5	275.45	434.23	709.24	502.08	527.18	669.74	481.12	470.53	629.64	482.31	493.46	752.39	497.75	508.47	575.35	478.19	527.86	581.52	334.8	446.65	419.53	484.75	507.26	335.67	444.79	439.91	350.66	468.78	509.41	406.27	466.73	432.83	150.1	422.2	477.18	159.98	336.01	372.47	122.98	352.84	391.42	95.263	323.97	377.12	89.689	386.29	553.07	69.366	469.46	601.69	84.54	355.29	655.3	102.03	419.59	226.33	713.28	114.16	299.45	630.5	110.86	223.43	623.5	130.82	294.94	724.75	92.524	256.14	529.04	122.13	286.62	529.44	260.96	179.74	398.41	107.05	227.87	300.67	129.7	170.2	317.79	110.47	239.18	376.51	120.77	126.24	108.67	152.67	156.46	119.79	246.97	56.053	76.613	200.81	66.676	51.567	234.59	63.791	49.859	172.15	271.06	38.659	128.95	299.61	46.199	251.7	359.99	58.42	198.39	266	1608.6	268.95	165.32	1296.4	284.12
315	1.3083	469.97	1284.8	269.45	360.9	1543.9	435.3	355.52	1553.2	104.33	350.18	1863.5	265.76	410.3	1046.1	427.35	420.71	1027.8	161.38	179.97	1090	329.36	179.68	1087.3	225.35	336.49	1003.9	511.9	309.75	981.3	82.755	321.68	1149.3	486.87	316.71	1111.6	81.381	164.64	1052.6	275.81	439.12	707.74	501.5	532.03	668.27	480.33	475.35	628.2	481.42	498.35	750.87	497.27	513.86	574.34	477.21	532.63	580.37	333.68	455.72	417.25	484.54	518.18	334.74	444.7	450.6	348.18	468.78	518.76	405.44	466.35	448.59	147.04	422.95	492.41	157.8	336.59	388.79	118.02	353.84	408.37	90.722	325.05	394.37	84.988	387.4	571.1	69.717	470.11	619	85.794	355.78	672.3	104.93	419.87	229.87	713.03	114.22	302.51	629.83	111.02	226.43	623.27	130.9	298.56	724.11	92.74	258.47	528.6	122.17	288.96	528.78	261.21	181.3	398.34	107.16	228.93	300.34	129.73	171.34	317.78	110.55	240.65	376.12	120.78	126.37	108.79	152.89	156.66	119.73	247.16	56.126	76.718	200.99	66.721	51.592	234.72	63.848	50.021	172.28	271.1	38.629	128.95	299.73	46.039	251.72	360.11	58.15	198.41	271.59	1607.6	269.15	170.79	1295.3	284.43
316	1.3125	475.54	1283.3	269.56	366.48	1542.7	435.58	361.07	1551.9	104.55	355.82	1862.4	266.07	415.81	1044.7	427.52	425.91	1026.3	161.44	185.41	1089	329.73	184.9	1086.4	225.71	341.97	1002.7	512.11	314.68	980.32	82.888	327.33	1148	487.14	321.85	1110.2	81.488	169.93	1051.7	276.19	443.95	706.15	500.94	536.82	666.7	479.54	480.1	626.65	480.54	503.18	749.25	496.8	519.22	573.27	476.21	537.31	579.11	332.51	464.76	415.02	484.36	528.99	333.88	444.61	461.23	345.77	468.81	528.02	404.63	465.95	464.19	144.17	423.72	507.45	155.77	337.19	404.96	113.28	354.89	425.13	86.418	326.18	411.47	80.54	388.56	588.87	70.235	470.72	636	87.177	356.22	688.98	107.91	420.07	233.51	712.72	114.27	305.67	629.14	111.19	229.54	622.99	130.98	302.27	723.43	92.957	260.91	528.13	122.22	291.43	528.09	261.47	182.95	398.27	107.27	230.06	299.99	129.77	172.55	317.77	110.64	242.21	375.72	120.81	126.51	108.92	153.11	156.86	119.69	247.35	56.205	76.842	201.18	66.771	51.634	234.85	63.907	50.199	172.41	271.15	38.599	128.95	299.86	45.881	251.74	360.23	57.871	198.44	277.18	1606.5	269.37	176.27	1294.1	284.77
317	1.3167	481.11	1281.7	269.69	372.08	1541.4	435.88	366.62	1550.6	104.79	361.48	1861.3	266.4	421.34	1043.3	427.7	431.13	1024.9	161.5	190.86	1088	330.12	190.14	1085.5	226.09	347.46	1001.3	512.32	319.62	979.34	83.03	333	1146.6	487.42	327	1108.8	81.615	175.24	1050.8	276.57	448.73	704.46	500.38	541.55	665.03	478.76	484.8	625.02	479.66	507.96	747.53	496.34	524.57	572.15	475.2	541.91	577.76	331.3	473.76	412.84	484.19	539.68	333.07	444.5	471.78	343.46	468.87	537.2	403.84	465.55	479.6	141.49	424.51	522.25	153.88	337.78	420.94	108.78	355.99	441.65	82.357	327.33	428.35	76.351	389.76	606.35	70.901	471.29	652.65	88.666	356.6	705.32	110.96	420.19	237.23	712.37	114.32	308.95	628.41	111.36	232.77	622.66	131.07	306.06	722.71	93.173	263.48	527.62	122.27	294.05	527.39	261.74	184.71	398.19	107.39	231.26	299.63	129.81	173.85	317.76	110.72	243.86	375.29	120.83	126.65	109.06	153.33	157.07	119.67	247.54	56.29	76.989	201.37	66.826	51.698	234.98	63.969	50.396	172.54	271.19	38.569	128.96	299.99	45.725	251.77	360.36	57.582	198.47	282.76	1605.4	269.62	181.74	1292.9	285.13
318	1.3208	486.7	1280.1	269.83	377.69	1540.1	436.2	372.17	1549.2	105.07	367.16	1860.1	266.74	426.9	1041.8	427.89	436.36	1023.4	161.58	196.34	1086.9	330.52	195.41	1084.6	226.48	352.96	999.9	512.54	324.59	978.35	83.182	338.68	1145.2	487.71	332.18	1107.4	81.764	180.57	1049.8	276.97	453.48	702.69	499.86	546.24	663.28	477.97	489.46	623.3	478.8	512.7	745.74	495.89	529.91	570.99	474.19	546.44	576.33	330.06	482.72	410.72	484.04	550.23	332.32	444.38	482.24	341.24	468.94	546.29	403.09	465.13	494.78	139	425.32	536.78	152.14	338.37	436.68	104.53	357.13	457.89	78.541	328.51	444.96	72.425	390.99	623.47	71.694	471.8	668.91	90.234	356.92	721.28	114.04	420.21	241.06	711.96	114.35	312.34	627.64	111.54	236.12	622.29	131.15	309.95	721.95	93.387	266.17	527.07	122.32	296.81	526.66	262.01	186.57	398.11	107.52	232.54	299.25	129.85	175.23	317.75	110.81	245.61	374.83	120.87	126.81	109.22	153.54	157.29	119.66	247.72	56.381	77.164	201.56	66.886	51.788	235.12	64.033	50.616	172.68	271.24	38.539	128.97	300.14	45.572	251.8	360.49	57.283	198.49	288.35	1604.2	269.89	187.22	1291.6	285.52
